
        <svg xmlns="http://www.w3.org/2000/svg" xmlns:xlink="http://www.w3.org/1999/xlink" version="1.1" width="150px" 
        height="150px" viewBox="0 0 3214.285714285714 2450.8986867592794">
			
			<g transform="scale(10.714285714285714) translate(10, 10)">
				<defs id="SvgjsDefs7666"><linearGradient id="SvgjsLinearGradient7673"><stop id="SvgjsStop7674" stop-color="#fbb040" offset="0"></stop><stop id="SvgjsStop7675" stop-color="#f9ed32" offset="1"></stop></linearGradient><linearGradient id="SvgjsLinearGradient7676"><stop id="SvgjsStop7677" stop-color="#fbb040" offset="0"></stop><stop id="SvgjsStop7678" stop-color="#f9ed32" offset="1"></stop></linearGradient></defs><g id="SvgjsG7667" featurekey="mugSzh-0" transform="matrix(3.452380952380952,0,0,3.452380952380952,57.642857142857146,-24.166669959113708)" fill="url(#SvgjsLinearGradient7673)"><g xmlns="http://www.w3.org/2000/svg"><g><path d="M26,13c-6.4,0-12,3.2-15.5,8H13c1.7,0,3,1.3,3,3c0,1.4-1,2.5-2.2,2.9c0.1,0.3,0.2,0.7,0.2,1.1c0,0.3-0.1,0.7-0.2,1    c0.1,0,0.1,0,0.2,0c2.8,0,5.2,1.6,6.3,4h11.4c1.1-2.4,3.5-4,6.3-4c2.8,0,5.2,1.6,6.3,4c0.4-0.1,0.7-0.5,0.7-1    C45,21.5,36.5,13,26,13z"></path><path d="M24,11.1C24,11.1,24,11,24,11.1C24,9.9,24.9,9,26,9s2,0.9,2,2v0.1c0.7,0.1,1.3,0.2,2,0.3c0-0.1,0-0.3,0-0.4    c0-2.2-1.8-4-4-4s-4,1.8-4,4c0,0.1,0,0.3,0,0.4C22.7,11.3,23.3,11.2,24,11.1z"></path><circle cx="14" cy="36" r="5"></circle><circle cx="38" cy="36" r="5"></circle><path d="M4,25h9c0.6,0,1-0.4,1-1s-0.4-1-1-1H4c-0.6,0-1,0.4-1,1S3.4,25,4,25z"></path><path d="M4,29h7c0.6,0,1-0.4,1-1s-0.4-1-1-1H4c-0.6,0-1,0.4-1,1S3.4,29,4,29z"></path><path d="M5,31H4c-0.6,0-1,0.4-1,1s0.4,1,1,1h1c0.6,0,1-0.4,1-1S5.6,31,5,31z"></path></g></g></g><g id="SvgjsG7668" featurekey="PPkF4s-0" transform="matrix(2.6515161476629405,0,0,2.6515161476629405,-0.15909081713880546,124.11373357999791)" fill="#ffffff"><path d="M10.9 20 l-0.98 0 l-2.74 -13.4 l-2.72 13.4 l-0.96 0 l-3.44 -15 l1.06 0 l2.74 13.08 l3.02 -13.08 l0.64 0 l3 13.08 l2.74 -13.08 l1.08 0 z M21.8 20 l-0.02 -6.98 l-5.48 0 l0.02 6.98 l-1.16 0 l0 -15 l1.16 0 l-0.02 6.96 l5.48 0 l0.02 -6.96 l1.18 0 l0 15 l-1.18 0 z M24.740000000000002 20 l0 -15 l7.36 0 l0 1.16 l-6.32 0 l0 5.7 l6.26 0 l0 0.92 l-6.26 0 l0 6.06 l6.46 0 l0 1.16 l-7.5 0 z M33.64 20 l0 -15 l7.36 0 l0 1.16 l-6.32 0 l0 5.7 l6.26 0 l0 0.92 l-6.26 0 l0 6.06 l6.46 0 l0 1.16 l-7.5 0 z M42.54 20 l0 -15 l1.08 0 l0 13.92 l5.1 0 l0 1.08 l-6.18 0 z M52.339999999999996 13.14 l0 6.86 l-1.08 0 l0 -6.86 l-3.62 -8.14 l1.24 0 l2.9 6.94 l2.94 -6.94 l1.24 0 z M69.89999999999999 20 l0 -12.72 l-3.62 8.66 l-1.12 -0.02 l-3.54 -8.66 l0 12.74 l-0.98 0 l0 -15 l1.04 0 l4.06 9.76 l4.08 -9.76 l1.06 0 l0 15 l-0.98 0 z M72.86 20 l0 -15 l7.36 0 l0 1.16 l-6.32 0 l0 5.7 l6.26 0 l0 0.92 l-6.26 0 l0 6.06 l6.46 0 l0 1.16 l-7.5 0 z M89.28 20 l-1.1 -4.42 l-4.88 0 l-1.1 4.42 l-1 0 l4.14 -15 l0.86 0 l4.12 15 l-1.04 0 z M85.8 5.9399999999999995 l-2.26 8.68 l4.38 0 z M91.28 20 l0 -15 l1.08 0 l0 13.92 l5.1 0 l0 1.08 l-6.18 0 z M101.83999999999999 20.18 c-0.65334 0 -1.2335 -0.086738 -1.7401 -0.26008 s-0.93332 -0.45 -1.28 -0.83 s-0.60332 -0.87666 -0.76998 -1.49 s-0.23666 -1.3533 -0.21 -2.22 l1.2 0 c0 0.42666 0.02 0.87 0.06 1.33 s0.14666 0.88 0.32 1.26 s0.43668 0.69 0.79002 0.93 s0.84334 0.36 1.47 0.36 c0.53334 0 0.98668 -0.08 1.36 -0.24 s0.67668 -0.37334 0.91002 -0.64 s0.39668 -0.58 0.49002 -0.94 s0.14 -0.73334 0.14 -1.12 c0 -0.45334 -0.08334 -0.85 -0.25 -1.19 s-0.38666 -0.64334 -0.66 -0.91 s-0.59334 -0.50332 -0.96 -0.70998 s-0.75 -0.39 -1.15 -0.55 c-0.64 -0.25334 -1.2 -0.50334 -1.68 -0.75 s-0.87334 -0.52332 -1.18 -0.82998 s-0.53666 -0.66332 -0.69 -1.07 s-0.23 -0.90332 -0.23 -1.49 c0 -1.3333 0.35 -2.3266 1.05 -2.98 s1.7033 -0.98 3.01 -0.98 c1.1333 0 2.03 0.33 2.69 0.99 s0.99 1.65 0.99 2.97 l0 1.1 l-1.12 0 l0 -1.2 c0 -0.41334 -0.05 -0.79668 -0.15 -1.15 s-0.25666 -0.66334 -0.47 -0.93 s-0.48334 -0.47666 -0.81 -0.63 s-0.71666 -0.23 -1.17 -0.23 c-1.0667 0 -1.83 0.28 -2.29 0.84 s-0.67 1.3133 -0.63 2.26 c0.01334 0.41334 0.09 0.76668 0.23 1.06 s0.32666 0.55 0.56 0.77 s0.51334 0.41666 0.84 0.59 s0.69 0.34668 1.09 0.52002 c0.46666 0.2 0.93 0.41334 1.39 0.64 s0.89 0.50666 1.29 0.84 c0.4 0.34666 0.73 0.75 0.99 1.21 s0.39 1.03 0.39 1.71 c0 1.32 -0.33666 2.31 -1.01 2.97 s-1.61 0.99 -2.81 0.99 z"></path></g><g id="SvgjsG7669" featurekey="uwAHB0-0" transform="matrix(1.3544687042397385,0,0,1.3544687042397385,12.000000322930504,181.41733423129543)" fill="url(#SvgjsLinearGradient7676)"><path d="M3.78 20.18 c-1.2667 0 -2.2134 -0.33334 -2.84 -1 s-0.94 -1.6533 -0.94 -2.96 l0 -7.4 c0 -1.3333 0.31334 -2.3266 0.94 -2.98 s1.64 -0.98 3.04 -0.98 c1.32 0 2.2866 0.33 2.9 0.99 s0.92 1.6367 0.92 2.93 l0 1.08 l-1.08 0 l0 -1.28 c0 -0.33334 -0.04 -0.67 -0.12 -1.01 s-0.22334 -0.65 -0.43 -0.93 s-0.49 -0.50666 -0.85 -0.68 s-0.82 -0.26 -1.38 -0.26 s-1.0233 0.07666 -1.39 0.23 s-0.66 0.37 -0.88 0.65 s-0.37666 0.61 -0.47 0.99 s-0.14 0.79666 -0.14 1.25 l0 7.48 c0 0.46666 0.04666 0.88332 0.14 1.25 s0.25 0.67666 0.47 0.93 s0.50666 0.44668 0.86 0.58002 s0.78334 0.2 1.29 0.2 c0.56 0 1.0267 -0.07 1.4 -0.21 s0.67334 -0.33666 0.9 -0.59 s0.39 -0.56 0.49 -0.92 s0.15 -0.75334 0.15 -1.18 l0 -2.94 l-3.14 -0.02 l0 -0.98 l4.18 0.02 l0 3.78 c0 1.32 -0.30666 2.31 -0.92 2.97 s-1.6467 0.99 -3.1 0.99 z M16.532 20 l0 -15 l7.36 0 l0 1.16 l-6.32 0 l0 5.7 l6.26 0 l0 0.92 l-6.26 0 l0 6.06 l6.46 0 l0 1.16 l-7.5 0 z M36.784 6.1 l0 13.9 l-1.16 0 l0 -13.9 l-3.26 0 l0 -1.1 l7.68 0 l0 1.1 l-3.26 0 z M60.428 6.140000000000001 l0 6.06 l6.02 0 l0 1.06 l-6.02 0 l0 6.74 l-1.16 0 l0 -15 l7.28 0 l0 1.14 l-6.12 0 z M78.4 20.18 c-2.52 0 -3.78 -1.32 -3.78 -3.96 l0 -7.4 c0 -1.3333 0.31666 -2.3266 0.95 -2.98 s1.6567 -0.98 3.07 -0.98 c1.2933 0 2.25 0.33 2.87 0.99 s0.93 1.6367 0.93 2.93 l0 7.44 c0 0.66666 -0.07 1.2467 -0.21 1.74 s-0.37 0.90668 -0.69 1.24 s-0.73666 0.58 -1.25 0.74 s-1.1433 0.24 -1.89 0.24 z M81.38000000000001 8.76 c0 -0.33334 -0.04664 -0.67338 -0.13998 -1.02 s-0.24668 -0.66332 -0.46002 -0.94998 s-0.49668 -0.52 -0.85002 -0.7 s-0.79 -0.27 -1.31 -0.27 c-0.57334 0 -1.05 0.08 -1.43 0.24 s-0.68 0.38334 -0.9 0.67 s-0.37666 0.62332 -0.47 1.01 s-0.14 0.80666 -0.14 1.26 l0 7.1 c0 0.34666 0.04 0.7 0.12 1.06 s0.22334 0.69 0.43 0.99 s0.48666 0.54666 0.84 0.74 s0.79668 0.29 1.33 0.29 c0.57334 0 1.05 -0.07666 1.43 -0.23 s0.68334 -0.36334 0.91 -0.63 s0.39 -0.58332 0.49 -0.94998 s0.15 -0.76332 0.15 -1.19 l0 -7.42 z M94.912 20.18 c-2.52 0 -3.78 -1.32 -3.78 -3.96 l0 -7.4 c0 -1.3333 0.31666 -2.3266 0.95 -2.98 s1.6567 -0.98 3.07 -0.98 c1.2933 0 2.25 0.33 2.87 0.99 s0.93 1.6367 0.93 2.93 l0 7.44 c0 0.66666 -0.07 1.2467 -0.21 1.74 s-0.37 0.90668 -0.69 1.24 s-0.73666 0.58 -1.25 0.74 s-1.1433 0.24 -1.89 0.24 z M97.89200000000001 8.76 c0 -0.33334 -0.04664 -0.67338 -0.13998 -1.02 s-0.24668 -0.66332 -0.46002 -0.94998 s-0.49668 -0.52 -0.85002 -0.7 s-0.79 -0.27 -1.31 -0.27 c-0.57334 0 -1.05 0.08 -1.43 0.24 s-0.68 0.38334 -0.9 0.67 s-0.37666 0.62332 -0.47 1.01 s-0.14 0.80666 -0.14 1.26 l0 7.1 c0 0.34666 0.04 0.7 0.12 1.06 s0.22334 0.69 0.43 0.99 s0.48666 0.54666 0.84 0.74 s0.79668 0.29 1.33 0.29 c0.57334 0 1.05 -0.07666 1.43 -0.23 s0.68334 -0.36334 0.91 -0.63 s0.39 -0.58332 0.49 -0.94998 s0.15 -0.76332 0.15 -1.19 l0 -7.42 z M115.06400000000001 16.96 c-0.09334 0.41334 -0.23 0.80334 -0.41 1.17 s-0.41666 0.69 -0.71 0.97 s-0.65 0.5 -1.07 0.66 s-0.91 0.24 -1.47 0.24 l-3.64 0 l0 -15 l3.5 0 c1.0133 0 1.8633 0.23666 2.55 0.71 s1.13 1.27 1.33 2.39 c0.04 0.21334 0.07334 0.54334 0.1 0.99 s0.04666 0.96 0.06 1.54 s0.02 1.19 0.02 1.83 s-0.01 1.2533 -0.03 1.84 s-0.05 1.1167 -0.09 1.59 s-0.08666 0.83 -0.14 1.07 z M111.084 6.02 l-2.32 0.000019531 l0 12.9 l2.6 0 c0.36 0 0.68 -0.06334 0.96 -0.19 s0.53 -0.29332 0.75 -0.49998 s0.40334 -0.43666 0.55 -0.69 s0.26666 -0.5 0.36 -0.74 c0.06666 -0.17334 0.12332 -0.48668 0.16998 -0.94002 s0.08 -0.97 0.1 -1.55 s0.03 -1.1967 0.03 -1.85 s-0.01 -1.2667 -0.03 -1.84 s-0.05 -1.08 -0.09 -1.52 s-0.08666 -0.74666 -0.14 -0.92 c-0.08 -0.24 -0.18666 -0.49 -0.32 -0.75 s-0.31 -0.49334 -0.53 -0.7 s-0.5 -0.37666 -0.84 -0.51 s-0.75666 -0.2 -1.25 -0.2 z M136.068 6.140000000000001 l0 6.06 l6.02 0 l0 1.06 l-6.02 0 l0 6.74 l-1.16 0 l0 -15 l7.28 0 l0 1.14 l-6.12 0 z M156.84000000000003 20 l-1.1 -4.42 l-4.88 0 l-1.1 4.42 l-1 0 l4.14 -15 l0.86 0 l4.12 15 l-1.04 0 z M153.36 5.9399999999999995 l-2.26 8.68 l4.38 0 z M169.89200000000002 20.18 c-0.65334 0 -1.2335 -0.086738 -1.7401 -0.26008 s-0.93332 -0.45 -1.28 -0.83 s-0.60332 -0.87666 -0.76998 -1.49 s-0.23666 -1.3533 -0.21 -2.22 l1.2 0 c0 0.42666 0.02 0.87 0.06 1.33 s0.14666 0.88 0.32 1.26 s0.43668 0.69 0.79002 0.93 s0.84334 0.36 1.47 0.36 c0.53334 0 0.98668 -0.08 1.36 -0.24 s0.67668 -0.37334 0.91002 -0.64 s0.39668 -0.58 0.49002 -0.94 s0.14 -0.73334 0.14 -1.12 c0 -0.45334 -0.08334 -0.85 -0.25 -1.19 s-0.38666 -0.64334 -0.66 -0.91 s-0.59334 -0.50332 -0.96 -0.70998 s-0.75 -0.39 -1.15 -0.55 c-0.64 -0.25334 -1.2 -0.50334 -1.68 -0.75 s-0.87334 -0.52332 -1.18 -0.82998 s-0.53666 -0.66332 -0.69 -1.07 s-0.23 -0.90332 -0.23 -1.49 c0 -1.3333 0.35 -2.3266 1.05 -2.98 s1.7033 -0.98 3.01 -0.98 c1.1333 0 2.03 0.33 2.69 0.99 s0.99 1.65 0.99 2.97 l0 1.1 l-1.12 0 l0 -1.2 c0 -0.41334 -0.05 -0.79668 -0.15 -1.15 s-0.25666 -0.66334 -0.47 -0.93 s-0.48334 -0.47666 -0.81 -0.63 s-0.71666 -0.23 -1.17 -0.23 c-1.0667 0 -1.83 0.28 -2.29 0.84 s-0.67 1.3133 -0.63 2.26 c0.01334 0.41334 0.09 0.76668 0.23 1.06 s0.32666 0.55 0.56 0.77 s0.51334 0.41666 0.84 0.59 s0.69 0.34668 1.09 0.52002 c0.46666 0.2 0.93 0.41334 1.39 0.64 s0.89 0.50666 1.29 0.84 c0.4 0.34666 0.73 0.75 0.99 1.21 s0.39 1.03 0.39 1.71 c0 1.32 -0.33666 2.31 -1.01 2.97 s-1.61 0.99 -2.81 0.99 z M185.74400000000003 6.1 l0 13.9 l-1.16 0 l0 -13.9 l-3.26 0 l0 -1.1 l7.68 0 l0 1.1 l-3.26 0 z"></path></g>
			</g>
		</svg>
	